<?xml version="1.0" encoding="UTF-8" standalone="no"?>
<!-- Created with Inkscape (http://www.inkscape.org/) -->

<svg
   width="1280"
   height="720"
   viewBox="0 0 338.66666 190.5"
   version="1.1"
   id="svg5"
   inkscape:version="1.2.2 (b0a8486541, 2022-12-01)"
   sodipodi:docname="projeto.svg"
   xml:space="preserve"
   xmlns:inkscape="http://www.inkscape.org/namespaces/inkscape"
   xmlns:sodipodi="http://sodipodi.sourceforge.net/DTD/sodipodi-0.dtd"
   xmlns="http://www.w3.org/2000/svg"
   xmlns:svg="http://www.w3.org/2000/svg"><sodipodi:namedview
     id="namedview7"
     pagecolor="#505050"
     bordercolor="#eeeeee"
     borderopacity="1"
     inkscape:showpageshadow="0"
     inkscape:pageopacity="0"
     inkscape:pagecheckerboard="0"
     inkscape:deskcolor="#505050"
     inkscape:document-units="mm"
     showgrid="false"
     inkscape:zoom="1.0469406"
     inkscape:cx="351.02278"
     inkscape:cy="168.10887"
     inkscape:window-width="1920"
     inkscape:window-height="1011"
     inkscape:window-x="1366"
     inkscape:window-y="32"
     inkscape:window-maximized="1"
     inkscape:current-layer="layer1" /><defs
     id="defs2" /><g
     inkscape:label="Camada 1"
     inkscape:groupmode="layer"
     id="layer1"><rect
       style="fill:#1a1a1a;stroke:none;stroke-width:0.1"
       id="rect1094"
       width="338.66666"
       height="190.5"
       x="5.0862632e-06"
       y="-1.503982e-14"
       ry="1.4527097" /><rect
       style="fill:#333333;stroke:none;stroke-width:0.0375"
       id="rect1096"
       width="47.625"
       height="190.5"
       x="5.0862632e-06"
       y="-7.1054274e-15"
       ry="1.4527097" /><rect
       style="fill:#333333;stroke:none;stroke-width:0.0765465"
       id="rect1098"
       width="238.125"
       height="158.75"
       x="71.4375"
       y="15.875"
       ry="1.2105914" /><g
       id="g3048"><rect
         style="fill:#4d4d4d;stroke:none;stroke-width:0.150173"
         id="rect1779"
         width="15.875"
         height="15.875"
         x="5.2916665"
         y="18.520834"
         ry="1.9166102" /><path
         style="fill:#f9f9f9;fill-opacity:1;stroke-width:0.0155164"
         d="M 10.190316,30.417242 C 9.9241429,30.387122 9.5752247,30.296182 9.3934255,30.20955 9.3186205,30.1739 9.2713691,30.10709 9.2619757,30.023688 c -0.0085,-0.0755 0.017028,-0.135321 0.0953,-0.223273 0.141302,-0.15878 0.2370586,-0.362253 0.2791555,-0.593177 0.013194,-0.07236 0.034959,-0.278241 0.048371,-0.457522 0.013413,-0.17928 0.037324,-0.388829 0.053139,-0.465663 0.1337635,-0.649987 0.5975228,-1.130876 1.2676638,-1.314488 0.101372,-0.02777 0.166327,-0.0335 0.392888,-0.03461 0.317371,-0.0015 0.438494,0.02317 0.674716,0.137742 0.387281,0.187836 0.682093,0.548733 0.799347,0.978521 0.04788,0.17549 0.05904,0.507573 0.02347,0.698496 -0.164126,0.881061 -0.845375,1.470837 -1.900809,1.645586 -0.179946,0.02979 -0.627659,0.04199 -0.804896,0.02194 z m 3.080253,-2.657777 c -0.06872,-0.218161 -0.26151,-0.521576 -0.457655,-0.72026 -0.206399,-0.20907 -0.51223,-0.403502 -0.755292,-0.480176 -0.05054,-0.01595 -0.08451,-0.03518 -0.08191,-0.0464 0.0059,-0.02541 0.47689,-0.642279 0.490402,-0.642279 0.0058,0 0.337535,0.327331 0.737244,0.727403 l 0.726744,0.727403 -0.176176,0.146098 c -0.156478,0.129764 -0.395332,0.323267 -0.441014,0.357282 -0.01077,0.008 -0.02575,-0.01643 -0.04234,-0.06908 z m 0.253674,-1.508028 -0.764776,-0.765457 0.144954,-0.176462 c 1.101216,-1.340586 2.035642,-2.228631 2.734539,-2.598809 0.383327,-0.203033 0.675698,-0.262794 0.94654,-0.193473 0.16025,0.04101 0.261165,0.0978 0.373377,0.210093 0.112212,0.112295 0.168953,0.213284 0.209939,0.373653 0.06855,0.268235 0.01866,0.528575 -0.178199,0.930002 -0.234353,0.477866 -0.663029,1.029758 -1.318829,1.697905 -0.417639,0.425504 -1.109429,1.072836 -1.343041,1.256731 l -0.03973,0.03127 z"
         id="path2263" /></g><g
       id="g3054"><g
         id="g2060"><rect
           style="fill:#4d4d4d;stroke:none;stroke-width:0.150173"
           id="rect1783"
           width="15.875"
           height="15.875"
           x="26.458334"
           y="18.520834"
           ry="1.9166102" /><g
           id="g2048"
           transform="translate(-0.58641291,0.17753458)" /></g><path
         style="fill:#f9f9f9;fill-opacity:1;stroke-width:0.0158187"
         d="m 33.727074,30.413831 c 0.0084,-0.0073 0.177189,-0.146834 0.375016,-0.310101 l 0.359682,-0.29685 h 1.82306 1.82306 v 0.310101 0.310101 h -2.198075 c -1.21737,0 -2.191234,-0.0059 -2.182743,-0.01325 z m -0.840013,-0.325669 c -0.09241,-0.04302 -2.402656,-2.26837 -2.436367,-2.346834 -0.02974,-0.06924 -0.03112,-0.119095 -0.0056,-0.204141 0.01599,-0.05338 0.101059,-0.143138 0.520051,-0.54872 l 0.500933,-0.484901 1.360061,1.306604 1.360061,1.306603 -0.472021,0.453963 c -0.259612,0.249679 -0.49847,0.471664 -0.530796,0.493298 -0.08113,0.0543 -0.209087,0.06472 -0.296274,0.02413 z m 0.50026,-2.824228 -1.355604,-1.30254 1.791382,-1.718458 c 1.560018,-1.496513 1.799961,-1.720783 1.857809,-1.736452 0.08891,-0.02408 0.140686,-0.02267 0.212482,0.0058 0.08319,0.03299 2.398799,2.252821 2.441725,2.340728 0.03467,0.071 0.03823,0.12867 0.01339,0.217071 -0.01509,0.0537 -0.256879,0.292282 -1.803156,1.779205 -0.982152,0.944452 -1.789486,1.717186 -1.794076,1.717186 -0.0046,0 -0.618367,-0.586143 -1.36395,-1.30254 z"
         id="path2683" /></g><g
       id="g3066"><g
         id="g2213"
         transform="translate(0,21.166666)"><rect
           style="fill:#4d4d4d;stroke:none;stroke-width:0.150173"
           id="rect2205"
           width="15.875"
           height="15.875"
           x="26.458334"
           y="18.520834"
           ry="1.9166102" /><g
           id="g2211"
           transform="translate(-0.58641291,0.17753458)" /></g></g><g
       id="g3060"><g
         id="g2203"
         transform="translate(0,21.166666)"><rect
           style="fill:#4d4d4d;stroke:none;stroke-width:0.150173"
           id="rect2195"
           width="15.875"
           height="15.875"
           x="5.2916665"
           y="18.520834"
           ry="1.9166102" /><g
           id="g2201"
           transform="matrix(1,0,0,0.85490078,1.517662,4.5554166)" /></g><path
         style="fill:#f9f9f9;fill-opacity:1;stroke-width:0.018215"
         d="m 13.708691,51.332373 c -1.646486,-0.176657 -3.258389,-0.824093 -4.356844,-1.749972 -0.2407298,-0.202907 -0.5447091,-0.49714 -0.6171893,-0.5974 -0.123243,-0.170482 -0.03264,-0.404014 0.1780458,-0.458811 0.037386,-0.0097 0.1795643,-0.02256 0.3159871,-0.02855 1.0394684,-0.04556 2.1057454,-0.385176 2.7386734,-0.872269 0.180719,-0.139079 0.2655,-0.224571 0.442898,-0.446628 l 0.124762,-0.156163 0.295276,0.147217 c 0.162399,0.08097 0.295273,0.153459 0.295273,0.161091 0,0.02205 -0.217313,0.300601 -0.344026,0.44097 -0.543339,0.601867 -1.618162,1.086411 -2.8258555,1.273913 l -0.189806,0.02946 0.053908,0.05007 c 0.1599391,0.148534 0.7488175,0.542359 0.8109775,0.542359 0.08659,0 0.391042,-0.08791 0.563769,-0.162795 0.09647,-0.04183 0.229704,-0.114558 0.296069,-0.16163 0.06637,-0.04707 0.12066,-0.07669 0.12066,-0.0658 0,0.05176 -0.216946,0.327711 -0.424681,0.540179 l -0.117322,0.119992 0.373505,0.1641 c 0.365818,0.160716 0.376319,0.164095 0.510155,0.164095 0.168448,0 0.296234,-0.03222 0.522274,-0.131691 0.298767,-0.131474 0.639583,-0.340735 0.938788,-0.57641 0.06787,-0.05345 0.128046,-0.0931 0.133733,-0.0881 0.03025,0.02666 -0.316582,0.569893 -0.584719,0.915829 -0.06922,0.08929 -0.119921,0.167299 -0.11268,0.173343 0.03153,0.02633 0.814291,0.151364 0.947598,0.151364 0.06296,0 0.07335,-0.0092 0.19307,-0.171636 0.40966,-0.555705 0.784523,-1.233344 1.09527,-1.979901 0.07279,-0.174865 0.138246,-0.330883 0.145471,-0.346698 0.01168,-0.02557 0.0442,-0.01936 0.294823,0.05655 0.154925,0.04692 0.302506,0.09228 0.327954,0.100798 l 0.04627,0.01547 -0.07724,0.19719 c -0.32568,0.831441 -0.802543,1.701814 -1.273687,2.32475 -0.341401,0.451394 -0.386919,0.47443 -0.841153,0.425695 z m 2.163985,-3.550953 c -1.979952,-0.775005 -3.050843,-1.195084 -3.063024,-1.201546 -0.0295,-0.01565 0.09473,-0.186278 0.209142,-0.287284 0.126606,-0.111767 0.318541,-0.210074 0.50045,-0.256321 0.186905,-0.04752 0.447734,-0.03574 0.644984,0.0291 0.131868,0.04336 1.292949,0.500242 1.436651,0.565319 0.270823,0.122651 0.491833,0.357065 0.565142,0.599424 0.04085,0.135095 0.03466,0.395463 -0.01262,0.530231 -0.02179,0.06209 -0.04144,0.112745 -0.04368,0.11257 -0.0021,-1.93e-4 -0.108908,-0.04135 -0.23704,-0.0915 z m -0.78142,-1.81012 c -0.290969,-0.11395 -0.529037,-0.212831 -0.529037,-0.219732 0,-0.01239 1.308724,-2.17628 1.359013,-2.247054 0.03883,-0.05467 0.122929,-0.09171 0.208151,-0.09171 0.24956,0 0.513312,0.18038 0.484909,0.331624 -0.0078,0.04127 -0.976441,2.418643 -0.990553,2.431033 -0.0021,0.0018 -0.241514,-0.09021 -0.532483,-0.204158 z"
         id="path2835" /></g><g
       id="g326"
       transform="translate(10.583339,38.938092)"><g
         id="g322"
         transform="translate(0,21.166666)"><rect
           style="fill:#ff8080;stroke:none;stroke-width:0.150173"
           id="rect318"
           width="15.875"
           height="15.875"
           x="5.2916665"
           y="18.520834"
           ry="1.9166102" /><g
           id="g320"
           transform="matrix(1,0,0,0.85490078,1.517662,4.5554166)" /></g></g><g
       id="g388"
       transform="translate(0,58.969193)"
       style="fill:#000000"><g
         id="g386"
         transform="translate(0,21.166666)"
         style="fill:#000000"><rect
           style="fill:#000000;stroke:none;stroke-width:0.150173"
           id="rect382"
           width="15.875"
           height="15.875"
           x="5.2916665"
           y="18.520834"
           ry="1.9166102" /><g
           id="g384"
           transform="matrix(1,0,0,0.85490078,1.517662,4.5554166)"
           style="fill:#000000" /></g></g><g
       id="g396"
       transform="translate(21.166667,58.969193)"
       style="fill:#ffffff"><g
         id="g394"
         transform="translate(0,21.166666)"
         style="fill:#ffffff"><rect
           style="fill:#ffffff;stroke:none;stroke-width:0.150173"
           id="rect390"
           width="15.875"
           height="15.875"
           x="5.2916665"
           y="18.520834"
           ry="1.9166102" /><g
           id="g392"
           transform="matrix(1,0,0,0.85490078,1.517662,4.5554166)"
           style="fill:#ffffff" /></g></g><g
       id="g404"
       transform="translate(0,79.000294)"
       style="fill:#ff5555"><g
         id="g402"
         transform="translate(0,21.166666)"
         style="fill:#ff5555"><rect
           style="fill:#ff5555;stroke:none;stroke-width:0.150173"
           id="rect398"
           width="15.875"
           height="15.875"
           x="5.2916665"
           y="18.520834"
           ry="1.9166102" /><g
           id="g400"
           transform="matrix(1,0,0,0.85490078,1.517662,4.5554166)"
           style="fill:#ff5555" /></g></g><g
       id="g412"
       transform="translate(21.166667,79.000294)"
       style="fill:#99ff55"><g
         id="g410"
         transform="translate(0,21.166666)"
         style="fill:#99ff55"><rect
           style="fill:#99ff55;stroke:none;stroke-width:0.150173"
           id="rect406"
           width="15.875"
           height="15.875"
           x="5.2916665"
           y="18.520834"
           ry="1.9166102" /><g
           id="g408"
           transform="matrix(1,0,0,0.85490078,1.517662,4.5554166)"
           style="fill:#99ff55" /></g></g><g
       id="g420"
       transform="translate(0,99.0314)"
       style="fill:#ffdd55"><g
         id="g418"
         transform="translate(0,21.166666)"
         style="fill:#ffdd55"><rect
           style="fill:#ffdd55;stroke:none;stroke-width:0.150173"
           id="rect414"
           width="15.875"
           height="15.875"
           x="5.2916665"
           y="18.520834"
           ry="1.9166102" /><g
           id="g416"
           transform="matrix(1,0,0,0.85490078,1.517662,4.5554166)"
           style="fill:#ffdd55" /></g></g><g
       id="g428"
       transform="translate(21.166667,99.0314)"
       style="fill:#5599ff"><g
         id="g426"
         transform="translate(0,21.166666)"
         style="fill:#5599ff"><rect
           style="fill:#5599ff;stroke:none;stroke-width:0.150173"
           id="rect422"
           width="15.875"
           height="15.875"
           x="5.2916665"
           y="18.520834"
           ry="1.9166102" /><g
           id="g424"
           transform="matrix(1,0,0,0.85490078,1.517662,4.5554166)"
           style="fill:#5599ff" /></g></g><g
       id="g436"
       transform="translate(0,119.0625)"
       style="fill:#ffb380"><g
         id="g434"
         transform="translate(0,21.166666)"
         style="fill:#ffb380"><rect
           style="fill:#ffb380;stroke:none;stroke-width:0.150173"
           id="rect430"
           width="15.875"
           height="15.875"
           x="5.2916665"
           y="18.520834"
           ry="1.9166102" /><g
           id="g432"
           transform="matrix(1,0,0,0.85490078,1.517662,4.5554166)"
           style="fill:#ffb380" /></g></g><g
       id="g444"
       transform="translate(21.166667,119.0625)"
       style="fill:#ff80e5"><g
         id="g442"
         transform="translate(0,21.166666)"
         style="fill:#ff80e5"><rect
           style="fill:#ff80e5;stroke:none;stroke-width:0.150173"
           id="rect438"
           width="15.875"
           height="15.875"
           x="5.2916665"
           y="18.520834"
           ry="1.9166102" /><g
           id="g440"
           transform="matrix(1,0,0,0.85490078,1.517662,4.5554166)"
           style="fill:#ff80e5" /></g></g><text
       xml:space="preserve"
       style="font-style:italic;font-weight:bold;font-size:3.5392px;line-height:1.25;font-family:'Caramel and Vanilla';-inkscape-font-specification:'Caramel and Vanilla Bold Italic';fill:#ffffff;stroke-width:0.0884801"
       x="6.2186894"
       y="14.758943"
       id="text998"><tspan
         sodipodi:role="line"
         id="tspan996"
         style="font-style:normal;font-variant:normal;font-weight:bold;font-stretch:normal;font-family:sans-serif;-inkscape-font-specification:'sans-serif Bold';fill:#ffffff;stroke-width:0.0884801"
         x="6.2186894"
         y="14.758943">Size: 10</tspan></text><path
       style="fill:#f9f9f9;fill-opacity:1;stroke-width:0.00157866"
       d="m 31.594079,50.655405 c -0.01314,-0.0012 -0.04105,-0.0071 -0.05498,-0.01171 -0.06431,-0.02119 -0.119708,-0.06992 -0.149399,-0.131406 -0.0096,-0.01998 -0.01622,-0.03975 -0.0209,-0.06287 l -0.0036,-0.01787 v -2.806078 -2.806078 l 0.0036,-0.01787 c 0.01058,-0.0522 0.0335,-0.09518 0.07049,-0.132173 0.03657,-0.03657 0.07904,-0.05936 0.131317,-0.07047 l 0.01716,-0.0036 0.695007,-4.95e-4 0.695007,-4.94e-4 v 0.992995 0.992998 h 1.417641 1.417642 v -0.992981 -0.99298 h 0.426635 0.426635 l 0.380067,0.380068 0.380067,0.380071 -3.87e-4,2.539276 -4.11e-4,2.539278 -0.0036,0.01705 c -0.01121,0.05272 -0.03368,0.09461 -0.07049,0.131427 -0.03666,0.03666 -0.07892,0.05934 -0.131317,0.07047 l -0.01716,0.0036 -2.801341,1.31e-4 c -1.540737,7.3e-5 -2.804182,-1.23e-4 -2.807656,-4.94e-4 z M 35.99066,50.17083 c 0.03131,-0.0074 0.05637,-0.01797 0.08099,-0.03423 0.05418,-0.03581 0.08817,-0.08726 0.102472,-0.155096 0.0024,-0.01158 0.0027,-0.07906 0.0032,-0.91393 3.63e-4,-0.613434 2.6e-5,-0.907973 -0.0011,-0.921939 -0.0027,-0.03444 -0.0096,-0.05965 -0.02388,-0.0884 -0.01575,-0.03164 -0.04377,-0.06463 -0.07214,-0.08495 -0.02582,-0.0185 -0.0594,-0.03313 -0.09191,-0.04006 -0.0129,-0.0027 -0.07391,-0.0029 -1.592873,-0.0029 -1.518961,0 -1.579968,1.09e-4 -1.592873,0.0029 -0.02075,0.0044 -0.04493,0.01303 -0.06282,0.02239 -0.06179,0.03227 -0.106876,0.0914 -0.120986,0.158671 -0.0014,0.0065 -0.0032,0.02109 -0.0041,0.03236 -0.0011,0.01396 -0.0015,0.308507 -0.0011,0.921941 4.94e-4,0.834864 7.63e-4,0.902341 0.0032,0.913927 0.01173,0.05566 0.03766,0.101695 0.0763,0.135481 0.0124,0.01083 0.03486,0.02612 0.04868,0.03311 0.02185,0.01105 0.05118,0.02019 0.07427,0.02312 0.0064,7.19e-4 0.6783,0.0012 1.585768,0.0012 l 1.574719,-2.18e-4 z m -1.162479,-3.775993 c -0.03589,-0.0078 -0.06519,-0.03653 -0.07451,-0.07297 -0.003,-0.01173 -0.0031,-0.02526 -0.0031,-0.734466 0,-0.713934 3.6e-5,-0.722666 0.0031,-0.734696 0.0074,-0.02908 0.02593,-0.05193 0.05232,-0.06465 0.0082,-0.0039 0.01908,-0.0079 0.02429,-0.0089 0.0068,-0.0012 0.09403,-0.0017 0.307839,-0.0012 l 0.298368,4.94e-4 0.01029,0.0035 c 0.03087,0.0105 0.05459,0.03516 0.06573,0.06833 0.0028,0.0084 0.0029,0.03331 0.0033,0.730132 3.63e-4,0.62757 1.09e-4,0.723194 -0.0019,0.734851 -0.0061,0.03515 -0.0318,0.06489 -0.06718,0.07763 l -0.01026,0.0037 -0.299157,2.43e-4 c -0.250265,2.34e-4 -0.3008,-7.8e-5 -0.309212,-0.0019 z"
       id="path1547" /></g></svg>
